<?xml version="1.0" encoding="iso-8859-1"?>
<!-- Generator: Adobe Illustrator 19.0.0, SVG Export Plug-In . SVG Version: 6.00 Build 0)  -->
<svg version="1.1" id="Capa_1" xmlns="http://www.w3.org/2000/svg" xmlns:xlink="http://www.w3.org/1999/xlink" x="0px" y="0px"
	 viewBox="0 0 512 512" style="enable-background:new 0 0 1512 1512;" xml:space="preserve">
<g>
	<g>
		<g>
			<path  fill='white' d="M437.012,74.983C389.065,26.232,324.374,0.005,255.996,0.005S123.33,26.632,74.979,74.983
				C26.629,123.334,0,187.621,0,256s26.629,132.666,74.979,181.017c48.351,48.351,112.638,74.979,181.017,74.979
				s132.666-26.629,181.017-74.979c48.351-48.351,74.422-112.64,74.979-181.017C512.542,188.34,488.172,127.002,437.012,74.983z
				 M255.996,496.996C123.11,496.996,15,388.886,15,256S123.11,15.004,255.996,15.004S496.991,123.114,496.991,256
				S388.881,496.996,255.996,496.996z"/>
			<path fill='white' d="M439.519,252.879c-1.72-101.193-85.453-182.108-186.643-180.403c-101.195,1.72-182.124,85.448-180.404,186.643
				c1.703,100.138,83.707,180.43,183.478,180.43c1.052,0,2.109-0.009,3.165-0.026C360.31,437.803,441.239,354.075,439.519,252.879z
				 M258.86,424.525c-0.975,0.017-1.935,0.024-2.907,0.024c-91.61-0.007-166.921-73.736-168.484-165.684
				c-1.58-92.926,72.736-169.811,165.661-171.391c0.975-0.017,1.935-0.024,2.907-0.024c91.61,0,166.921,73.736,168.484,165.685
				C426.101,346.06,351.786,422.946,258.86,424.525z"/>
			<path fill='white' d="M82.977,127.222l-12.014-8.982C41.127,158.146,25.357,205.782,25.357,256c0,21.108,2.83,41.998,8.411,62.089
				l14.453-4.016c-5.218-18.783-7.864-38.321-7.864-58.073C40.356,209.044,55.094,164.514,82.977,127.222z"/>
			<path fill='white' d="M419.082,92.913c-13.488-13.488-28.526-25.248-44.695-34.952l-7.719,12.861c15.119,9.075,29.185,20.076,41.808,32.698
				c40.728,40.729,63.159,94.881,63.159,152.479c0,34.933-8.469,69.528-24.491,100.047l13.281,6.973
				c17.146-32.66,26.21-69.668,26.21-107.019C486.634,194.394,462.644,136.475,419.082,92.913z"/>
			<path  fill='white' d="M116.207,91.784l-9.743-11.404c-4.444,3.796-8.81,7.818-12.975,11.954l10.569,10.645
				C107.959,99.104,112.046,95.338,116.207,91.784z"/>
			<path d="M424.823,390.205l11.724,9.357c3.995-5.006,7.821-10.23,11.371-15.529l-12.461-8.35
				C432.136,380.637,428.558,385.523,424.823,390.205z"/>
			<path fill='white' d="M255.996,147.007c-60.099,0-108.992,48.894-108.992,108.992s48.893,108.993,108.992,108.993
				c60.099,0,108.992-48.894,108.992-108.992C364.988,195.902,316.094,147.007,255.996,147.007z M255.996,349.992
				c-51.828,0-93.992-42.165-93.992-93.992c0-51.827,42.164-93.993,93.992-93.993c51.828,0,93.992,42.165,93.992,93.992
				S307.824,349.992,255.996,349.992z"/>
			<path fill='white' d="M332.067,290.75c2.617-5.707,4.586-11.717,5.851-17.863l-14.691-3.025c-1.037,5.036-2.65,9.96-4.794,14.637
				L332.067,290.75z"/>
			<path fill='white' d="M255.996,324.636c-10.468,0-20.522-2.306-29.882-6.853l-6.555,13.492c11.42,5.548,23.679,8.36,36.435,8.36
				c22.693,0,43.943-8.969,59.836-25.253l-10.734-10.477C292.051,317.274,274.613,324.636,255.996,324.636z"/>
			<path fill='white' d="M174.433,237.448l14.627,3.326c1.057-4.648,2.61-9.201,4.618-13.531l-13.609-6.309
				C177.62,226.22,175.724,231.776,174.433,237.448z"/>
			<path fill='white' d="M268.994,188.597l2.834-14.73c-5.187-0.998-10.514-1.504-15.832-1.504c-22.931,0-45.122,9.604-60.886,26.347
				l10.922,10.281c13.131-13.947,30.874-21.629,49.964-21.629C260.365,187.363,264.738,187.778,268.994,188.597z"/>
		</g>
	</g>
</g>
<g>
</g>
<g>
</g>
<g>
</g>
<g>
</g>
<g>
</g>
<g>
</g>
<g>
</g>
<g>
</g>
<g>
</g>
<g>
</g>
<g>
</g>
<g>
</g>
<g>
</g>
<g>
</g>
<g>
</g>
</svg>
